<?xml version="1.0" encoding="utf-8"?>
<!-- Generator: Adobe Illustrator 25.0.1, SVG Export Plug-In . SVG Version: 6.00 Build 0)  -->
<svg version="1.1" id="Layer_1" xmlns="http://www.w3.org/2000/svg" xmlns:xlink="http://www.w3.org/1999/xlink" x="0px" y="0px"
	 viewBox="0 0 222.6 234.21" style="enable-background:new 0 0 222.6 234.21;" xml:space="preserve">
<style type="text/css">
	.st0{fill:none;stroke:#000000;stroke-width:14;stroke-miterlimit:10;}
	.st1{fill:none;stroke:#3C3C3B;stroke-width:14;stroke-miterlimit:10;}
	.st2{fill:none;stroke:#000000;stroke-width:14;stroke-linecap:round;stroke-linejoin:round;stroke-miterlimit:10;}
</style>
<circle class="st0" cx="106.88" cy="161.15" r="23.61"/>
<path d="M113.88,136.22h-14V51.68c0-3.87,3.13-7,7-7h0c3.87,0,7,3.13,7,7V136.22z"/>
<path d="M113.22,131.35h-12.68c-3.33,0-6.02-2.7-6.02-6.02v-18.39c0-3.33,2.7-6.02,6.02-6.02h12.68c3.33,0,6.02,2.7,6.02,6.02v18.39
	C119.24,128.66,116.55,131.35,113.22,131.35z"/>
<path class="st1" d="M175.93,88.32"/>
<path class="st2" d="M106.88,103.8c0-12.17,9.87-22.04,22.04-22.04s22.04,9.87,22.04,22.04v27.55"/>
</svg>
